# xmcd
#
# Track frame offsets: 
#        150
#        19575
#        39277
#        55934
#        75849
#        94745
#        114217
#        136111
#        153978
#        174051
#
# Disc length: 2549 seconds
#
# Revision: 0
# Processed by: cddbd v1.5.2PL0 Copyright (c) Steve Scherf et al.
# Submitted via: ExactAudioCopy v0.99pb4
#
DISCID=5d09f30a
DTITLE=จ่าส่ง ร็อคออนซอน - ยืดอกเจ็บ
DYEAR=2009
DGENRE=Country
TTITLE0=ยืดอกเจ็บ
TTITLE1=แค่คนจะไป
TTITLE2=ปรบมือข้างเดียว
TTITLE3=อ้ายขีนบ่ได้
TTITLE4=ขอบใจเด้อหมู่
TTITLE5=ผมมันไม่ดี
TTITLE6=ปล่อยใจให้โบยบิน
TTITLE7=แข็งแต่ปาก
TTITLE8=รักแฟนเขา
TTITLE9=ฮักสาวขะแมร์
EXTD=
EXTT0=
EXTT1=
EXTT2=
EXTT3=
EXTT4=
EXTT5=
EXTT6=
EXTT7=
EXTT8=
EXTT9=
PLAYORDER=
